HIERARCHY
ROOT Hips
{
	OFFSET 0.000000 0.000000 0.000000
	CHANNELS 6 Xposition Yposition Zposition Xrotation Yrotation Zrotation
	JOINT LeftUpLeg_virtual
	{
		OFFSET 0.000000 0.000000 0.000000
		CHANNELS 3 Xrotation Yrotation Zrotation
		JOINT LeftUpLeg
		{
			OFFSET 11.394100 -6.187798 -0.413800
			CHANNELS 3 Xrotation Yrotation Zrotation
			JOINT LeftLeg
			{
				OFFSET 0.430247 -32.302673 3.732800
				CHANNELS 3 Xrotation Yrotation Zrotation
				JOINT LeftFoot
				{
					OFFSET -0.430247 -48.264931 -6.423300
					CHANNELS 3 Xrotation Yrotation Zrotation
					JOINT LeftToeBase
					{
						OFFSET 4.230900 -16.068199 23.438400
						CHANNELS 3 Xrotation Yrotation Zrotation
						JOINT LeftToe_End
						{
							OFFSET 4.510700 0.695400 19.974600
							CHANNELS 3 Xrotation Yrotation Zrotation
							End Site
							{
								OFFSET 0 0 0
							}
						}
					}
				}
			}
		}
	}
	JOINT RightUpLeg_virtual
	{
		OFFSET 0.000000 0.000000 0.000000
		CHANNELS 3 Xrotation Yrotation Zrotation
		JOINT RightUpLeg
		{
			OFFSET -11.333700 -6.187798 -0.413800
			CHANNELS 3 Xrotation Yrotation Zrotation
			JOINT RightLeg
			{
				OFFSET -0.430392 -32.302628 3.733000
				CHANNELS 3 Xrotation Yrotation Zrotation
				JOINT RightFoot
				{
					OFFSET 0.430392 -48.264973 -6.423500
					CHANNELS 3 Xrotation Yrotation Zrotation
					JOINT RightToeBase
					{
						OFFSET -4.230900 -16.068199 23.438400
						CHANNELS 3 Xrotation Yrotation Zrotation
						JOINT RightToe_End
						{
							OFFSET -4.510700 0.695400 19.974600
							CHANNELS 3 Xrotation Yrotation Zrotation
							End Site
							{
								OFFSET 0 0 0
							}
						}
					}
				}
			}
		}
	}
	JOINT Spine_virtual
	{
		OFFSET 0.000000 0.000000 0.000000
		CHANNELS 3 Xrotation Yrotation Zrotation
		JOINT Spine
		{
			OFFSET -0.002400 12.777504 0.315300
			CHANNELS 3 Xrotation Yrotation Zrotation
			JOINT Spine1
			{
				OFFSET -0.002067 5.816869 0.032633
				CHANNELS 3 Xrotation Yrotation Zrotation
				JOINT Spine1_split
				{
					OFFSET -0.002067 5.816869 0.032633
					CHANNELS 3 Xrotation Yrotation Zrotation
					JOINT Spine2
					{
						OFFSET -0.002067 5.816869 0.032633
						CHANNELS 3 Xrotation Yrotation Zrotation
						JOINT Neck_virtual
						{
							OFFSET 0.000000 0.000000 0.000000
							CHANNELS 3 Xrotation Yrotation Zrotation
							JOINT Neck
							{
								OFFSET -0.003700 21.199493 -0.826900
								CHANNELS 3 Xrotation Yrotation Zrotation
								JOINT Head
								{
									OFFSET 0.000000 20.442200 4.834800
									CHANNELS 3 Xrotation Yrotation Zrotation
									JOINT HeadTop_End
									{
										OFFSET 0.000000 34.668396 4.968400
										CHANNELS 3 Xrotation Yrotation Zrotation
										End Site
										{
											OFFSET 0 0 0
										}
									}
								}
							}
						}
						JOINT LeftShoulder_virtual
						{
							OFFSET 0.000000 0.000000 0.000000
							CHANNELS 3 Xrotation Yrotation Zrotation
							JOINT LeftShoulder
							{
								OFFSET 3.288150 8.794197 -1.372250
								CHANNELS 3 Xrotation Yrotation Zrotation
								JOINT LeftShoulder_split
								{
									OFFSET 3.288150 8.794197 -1.372250
									CHANNELS 3 Xrotation Yrotation Zrotation
									JOINT LeftArm
									{
										OFFSET 11.953299 -2.279007 -0.146200
										CHANNELS 3 Xrotation Yrotation Zrotation
										JOINT LeftForeArm
										{
											OFFSET 18.448900 0.000000 0.000000
											CHANNELS 3 Xrotation Yrotation Zrotation
											JOINT LeftHand
											{
												OFFSET 29.527798 0.000000 0.000000
												CHANNELS 3 Xrotation Yrotation Zrotation
												End Site
												{
													OFFSET 0 0 0
												}
											}
										}
									}
								}
							}
						}
						JOINT RightShoulder_virtual
						{
							OFFSET 0.000000 0.000000 0.000000
							CHANNELS 3 Xrotation Yrotation Zrotation
							JOINT RightShoulder
							{
								OFFSET -3.249400 8.794197 -1.372250
								CHANNELS 3 Xrotation Yrotation Zrotation
								JOINT RightShoulder_split
								{
									OFFSET -3.249400 8.794197 -1.372250
									CHANNELS 3 Xrotation Yrotation Zrotation
									JOINT RightArm
									{
										OFFSET -11.953299 -2.279007 -0.146200
										CHANNELS 3 Xrotation Yrotation Zrotation
										JOINT RightForeArm
										{
											OFFSET -18.448900 0.000000 0.000000
											CHANNELS 3 Xrotation Yrotation Zrotation
											JOINT RightHand
											{
												OFFSET -29.527802 0.000000 0.000000
												CHANNELS 3 Xrotation Yrotation Zrotation
												End Site
												{
													OFFSET 0 0 0
												}
											}
										}
									}
								}
							}
						}
					}
				}
			}
		}
	}
}
MOTION
Frames: 9
Frame Time: 0.03333333
-0.205900 103.485687 -0.399361 0.000000 0.000000 0.000000 0.531928 -6.993989 -0.913032 -17.109206 19.500836 14.324705 15.237220 10.366830 3.467666 0.898476 3.172890 -12.328376 2.513734 0.656272 -1.607231 0.000000 0.000000 0.000000 1.059795 -5.890410 -0.955979 -19.788262 -21.228737 -4.858125 13.924571 7.711274 -5.512677 1.453503 2.574520 0.706213 0.070327 -1.332457 -0.503908 0.000000 0.000000 0.000000 0.499088 -8.309188 -1.363671 -0.461512 -0.710286 1.788329 -0.754382 -1.106468 1.008718 1.289733 1.459166 -0.387887 0.000000 0.000000 0.000000 -1.125115 -0.527689 0.902893 -5.339897 0.487164 1.212969 -1.174671 8.071291 0.434082 0.000000 0.000000 0.000000 -1.356787 -0.213979 0.586741 -0.561647 9.805005 -2.811056 -3.525781 -0.109443 -0.516710 42.117194 -65.770658 -27.784586 -0.497015 -27.903215 2.058647 0.000000 0.000000 0.000000 -0.227415 -0.313927 0.451291 3.964290 2.843205 3.649721 0.806049 2.241096 -1.111917 -2.149907 38.326254 65.860666 1.227372 25.370818 1.459387 0.000000 0.000000 0.000000 
-0.179059 103.514816 -0.277542 0.000000 0.000000 0.000000 0.538239 -7.165107 -0.851203 -17.109996 19.561342 14.244099 15.191994 10.356845 3.483044 0.731704 3.132184 -12.360980 2.608420 0.622274 -1.556444 0.000000 0.000000 0.000000 1.153874 -6.029086 -0.889403 -19.772079 -21.205354 -4.838927 13.973233 7.671856 -5.526448 1.498316 2.472103 0.394823 -0.010001 -1.363365 -0.356919 0.000000 0.000000 0.000000 0.542291 -8.317014 -1.382172 -0.533567 -0.758619 1.796792 -0.720280 -1.116825 1.009585 1.312258 1.371469 -0.348510 0.000000 0.000000 0.000000 -1.135258 -0.526559 0.930066 -5.471886 0.615850 1.095715 -1.224779 8.295177 0.468470 0.000000 0.000000 0.000000 -1.276186 -0.220228 0.594703 -0.542303 9.806710 -2.899708 -3.789208 -0.009928 -0.323296 42.362507 -65.781128 -27.629722 -0.378973 -28.105976 2.071697 0.000000 0.000000 0.000000 -0.202480 -0.292598 0.486771 3.940301 2.979428 3.221049 1.045023 2.717203 -1.321497 -2.716148 38.281069 66.283134 1.082638 25.276776 1.372520 0.000000 0.000000 0.000000 
-0.087204 103.529144 -0.171745 0.000000 0.000000 0.000000 0.602946 -7.469056 -0.694720 -17.029496 19.702137 14.074196 15.211736 10.376964 3.530088 0.519245 3.121978 -12.307269 2.690062 0.586760 -1.549367 0.000000 0.000000 0.000000 1.215280 -6.211605 -0.740304 -19.912493 -21.124290 -4.984233 14.192173 7.645925 -5.554892 1.523882 2.420075 0.096747 -0.162552 -1.364893 -0.260863 0.000000 0.000000 0.000000 0.583214 -8.474656 -1.305871 -0.601840 -0.831880 1.764521 -0.658395 -1.147932 1.015897 1.250777 1.113162 -0.393091 0.000000 0.000000 0.000000 -1.062350 -0.538962 0.949163 -5.680479 0.763189 0.822573 -1.202879 8.542047 0.385978 0.000000 0.000000 0.000000 -1.128590 -0.260526 0.604176 -0.529486 9.852228 -2.901432 -3.875864 0.047591 -0.228693 42.046696 -65.983555 -28.023850 -0.336149 -28.377520 1.973083 0.000000 0.000000 0.000000 -0.149995 -0.296807 0.538731 3.901467 3.114254 2.578328 0.898609 3.165669 -1.455749 -3.383206 39.101679 66.832479 0.914263 24.076666 1.190377 0.000000 0.000000 0.000000 
0.060370 103.510155 -0.093666 0.000000 0.000000 0.000000 0.699424 -7.813523 -0.454575 -16.928962 19.919559 13.838014 15.292963 10.426059 3.602911 0.290832 3.145025 -12.120064 2.758036 0.550479 -1.588894 0.000000 0.000000 0.000000 1.275467 -6.381897 -0.514537 -20.249383 -21.010164 -5.313136 14.524481 7.675609 -5.576024 1.593960 2.476151 -0.036128 -0.341008 -1.328382 -0.233269 0.000000 0.000000 0.000000 0.598850 -8.720531 -1.137172 -0.640827 -0.890737 1.702862 -0.567240 -1.176588 1.011907 1.103266 0.759948 -0.443147 0.000000 0.000000 0.000000 -0.940611 -0.548370 0.936683 -5.950998 0.877429 0.488839 -1.132740 8.768725 0.200989 0.000000 0.000000 0.000000 -0.933569 -0.310856 0.595355 -0.528716 9.884682 -2.804859 -3.853501 0.098362 -0.166910 41.180611 -66.377049 -28.832175 -0.347394 -28.680685 1.813082 0.000000 0.000000 0.000000 -0.053096 -0.311404 0.579109 3.865336 3.240771 1.945679 0.604456 3.372500 -1.404645 -4.101604 40.448268 67.321104 0.741064 22.483058 0.958170 0.000000 0.000000 0.000000 
0.240159 103.465569 -0.058632 0.000000 0.000000 0.000000 0.802590 -8.121144 -0.158195 -16.850476 20.196028 13.570216 15.421659 10.459260 3.684247 0.066847 3.183484 -11.792416 2.811743 0.512647 -1.666714 0.000000 0.000000 0.000000 1.346293 -6.547954 -0.232906 -20.668682 -20.867724 -5.742077 14.826447 7.756622 -5.583829 1.666417 2.616934 0.000303 -0.535618 -1.268848 -0.283477 0.000000 0.000000 0.000000 0.583465 -8.987287 -0.911237 -0.646823 -0.876457 1.633056 -0.446951 -1.165401 0.969776 0.889910 0.530131 -0.526900 0.000000 0.000000 0.000000 -0.787770 -0.523723 0.867751 -6.280749 0.925600 0.203311 -1.079386 8.882776 -0.026582 0.000000 0.000000 0.000000 -0.737973 -0.320527 0.552925 -0.546109 9.871794 -2.621800 -3.761212 0.133371 -0.231063 39.826953 -66.976794 -29.873178 -0.360553 -28.899845 1.663265 0.000000 0.000000 0.000000 0.099968 -0.300702 0.572472 3.847678 3.337269 1.572842 0.297378 3.362090 -1.300356 -4.995425 41.950400 67.624173 0.575175 21.152925 0.776019 0.000000 0.000000 0.000000 
0.430730 103.366730 -0.066097 0.000000 0.000000 0.000000 0.882185 -8.398349 0.154913 -16.831780 20.486251 13.310930 15.566015 10.407615 3.751521 -0.158239 3.201866 -11.390417 2.814216 0.480315 -1.742026 0.000000 0.000000 0.000000 1.412844 -6.696100 0.065920 -21.073598 -20.675239 -6.180044 15.025909 7.815487 -5.578239 1.648810 2.758064 0.106164 -0.692310 -1.202584 -0.392341 0.000000 0.000000 0.000000 0.574929 -9.173321 -0.674721 -0.620858 -0.720748 1.570677 -0.294145 -1.074063 0.874899 0.757006 0.490457 -0.502706 0.000000 0.000000 0.000000 -0.637005 -0.422616 0.745995 -6.658901 0.883704 0.051069 -1.102101 8.812721 -0.243968 0.000000 0.000000 0.000000 -0.583954 -0.256096 0.480010 -0.578912 9.774294 -2.381916 -3.760455 0.175776 -0.415893 38.334703 -67.740416 -30.802217 -0.345012 -28.874345 1.577398 0.000000 0.000000 0.000000 0.270695 -0.233238 0.497213 3.857259 3.431191 1.550041 0.078889 3.284748 -1.030740 -6.294322 43.228585 67.654076 0.430224 20.155140 0.678415 0.000000 0.000000 0.000000 
0.618346 103.239990 -0.118759 0.000000 0.000000 0.000000 0.876730 -8.692561 0.437871 -16.847585 20.750461 13.085179 15.699716 10.239967 3.790660 -0.367633 3.207253 -11.027949 2.768922 0.452533 -1.799730 0.000000 0.000000 0.000000 1.436825 -6.885327 0.328303 -21.395873 -20.406554 -6.546846 15.151851 7.751260 -5.542728 1.582786 2.819831 0.173390 -0.744307 -1.147962 -0.516201 0.000000 0.000000 0.000000 0.534828 -9.272068 -0.475189 -0.544213 -0.412952 1.510474 -0.135293 -0.884586 0.729269 0.718556 0.706520 -0.464762 0.000000 0.000000 0.000000 -0.523533 -0.231515 0.571596 -7.076721 0.737510 0.059317 -1.268315 8.515261 -0.402248 0.000000 0.000000 0.000000 -0.474510 -0.082339 0.380870 -0.619788 9.575772 -2.086150 -3.925547 0.351605 -0.598636 37.138884 -68.618546 -31.302791 -0.274919 -28.520722 1.573174 0.000000 0.000000 0.000000 0.433692 -0.069822 0.365278 3.859972 3.527538 1.784759 0.194875 3.305380 -0.693631 -8.258523 44.320947 67.480835 0.287060 19.290300 0.589702 0.000000 0.000000 0.000000 
0.823969 103.127151 -0.223309 0.000000 0.000000 0.000000 0.789189 -9.081268 0.631313 -16.845220 20.983835 12.923185 15.848064 9.963377 3.786816 -0.524905 3.271223 -10.792063 2.639633 0.434423 -1.817925 0.000000 0.000000 0.000000 1.332562 -7.237816 0.503944 -21.653745 -20.025131 -6.818347 15.306565 7.562573 -5.452819 1.603901 2.819492 0.208493 -0.657009 -1.127744 -0.628379 0.000000 0.000000 0.000000 0.480566 -9.390731 -0.352755 -0.440055 0.025622 1.448488 0.010936 -0.608334 0.544473 0.856863 1.162785 -0.459783 0.000000 0.000000 0.000000 -0.448042 0.047870 0.376079 -7.493845 0.493088 0.232448 -1.603842 8.008143 -0.475463 0.000000 0.000000 0.000000 -0.400458 0.208571 0.267980 -0.658311 9.308632 -1.716039 -4.178431 0.665778 -0.771256 36.558618 -69.514483 -31.274306 -0.179445 -27.830586 1.618623 0.000000 0.000000 0.000000 0.553847 0.200727 0.191876 3.864740 3.592154 2.137276 0.476902 3.342058 -0.317709 -10.978288 45.762261 67.238821 0.131174 18.155054 0.482135 0.000000 0.000000 0.000000 
1.045020 103.040070 -0.342800 0.000000 0.000000 0.000000 0.613383 -9.692392 0.685151 -16.755613 21.206267 12.837442 16.010395 9.697248 3.761246 -0.706690 3.516220 -10.641983 2.461238 0.423254 -1.794872 0.000000 0.000000 0.000000 1.082191 -7.880056 0.556037 -21.885388 -19.504360 -6.999316 15.451319 7.331670 -5.280126 1.865142 2.895105 0.309867 -0.493421 -1.142029 -0.707841 0.000000 0.000000 0.000000 0.368015 -9.660585 -0.342446 -0.303916 0.530253 1.386888 0.126273 -0.283818 0.356169 1.067160 1.486246 -0.319414 0.000000 0.000000 0.000000 -0.407283 0.383358 0.200361 -7.840273 0.180860 0.579531 -2.036130 7.434798 -0.502091 0.000000 0.000000 0.000000 -0.351443 0.568338 0.159131 -0.681882 8.970698 -1.275926 -4.334528 1.044638 -0.883700 36.707817 -70.324010 -30.836204 -0.112323 -26.972747 1.648740 0.000000 0.000000 0.000000 0.605566 0.538250 0.017076 3.892300 3.601818 2.395493 0.811863 3.503858 -0.062786 -14.442064 48.088504 67.174849 -0.033953 16.662132 0.309219 0.000000 0.000000 0.000000 
